<mxfile host="app.diagrams.net" modified="2021-12-09T02:37:02.474Z" agent="5.0 (Macintosh; Intel Mac OS X 10_15_7) AppleWebKit/537.36 (KHTML, like Gecko) Chrome/96.0.4664.93 Safari/537.36" etag="SoFiKE3-sUEqmrgTNHH9" version="15.9.4" type="github">
  <diagram id="QLgcXN1Ai31TAumj8eJU" name="Page-1">
    <mxGraphModel dx="1106" dy="646" grid="1" gridSize="10" guides="1" tooltips="1" connect="1" arrows="1" fold="1" page="1" pageScale="1" pageWidth="850" pageHeight="1100" math="0" shadow="0">
      <root>
        <mxCell id="0" />
        <mxCell id="1" parent="0" />
        <mxCell id="bwTC1MJPfh5gJeANVX7q-1" value="&lt;font style=&quot;font-size: 100px;&quot;&gt;List&amp;lt;&lt;font color=&quot;#ff0000&quot; style=&quot;font-size: 100px;&quot;&gt;T&lt;/font&gt;&amp;gt;&lt;/font&gt;" style="text;html=1;strokeColor=none;fillColor=#000000;align=center;verticalAlign=middle;whiteSpace=wrap;rounded=0;fontColor=#FFFFFF;fontSize=100;" vertex="1" parent="1">
          <mxGeometry x="150" y="250" width="450" height="300" as="geometry" />
        </mxCell>
        <mxCell id="bwTC1MJPfh5gJeANVX7q-2" value="" style="endArrow=classic;html=1;rounded=0;fontSize=100;fontColor=#FF0000;entryX=0.711;entryY=0.333;entryDx=0;entryDy=0;entryPerimeter=0;strokeWidth=10;fillColor=#e51400;strokeColor=#009900;exitX=0.867;exitY=0.133;exitDx=0;exitDy=0;exitPerimeter=0;" edge="1" parent="1" source="bwTC1MJPfh5gJeANVX7q-1" target="bwTC1MJPfh5gJeANVX7q-1">
          <mxGeometry width="50" height="50" relative="1" as="geometry">
            <mxPoint x="520" y="280" as="sourcePoint" />
            <mxPoint x="450" y="280" as="targetPoint" />
          </mxGeometry>
        </mxCell>
      </root>
    </mxGraphModel>
  </diagram>
</mxfile>
